<?xml version="1.0" encoding="iso-8859-1"?>
<!-- Generator: Adobe Illustrator 19.0.0, SVG Export Plug-In . SVG Version: 6.00 Build 0)  -->
<svg version="1.1" id="Capa_1" xmlns="http://www.w3.org/2000/svg" xmlns:xlink="http://www.w3.org/1999/xlink" x="0px" y="0px"
	 viewBox="0 0 512 512" style="enable-background:new 0 0 512 512;" xml:space="preserve">
<path style="fill:#DAC69C;" d="M74.719,336.981c-1.972,0-3.94-0.773-5.413-2.308c-2.868-2.988-2.77-7.736,0.219-10.604
	l159.19-152.743c2.988-2.867,7.736-2.77,10.604,0.22c2.868,2.988,2.77,7.736-0.219,10.605L79.91,334.893
	C78.456,336.287,76.586,336.981,74.719,336.981z"/>
<path style="fill:#B69362;" d="M410.957,37.25h-28.741c-4.142,0-7.5-3.357-7.5-7.5s3.358-7.5,7.5-7.5h28.741
	c4.142,0,7.5,3.357,7.5,7.5S415.099,37.25,410.957,37.25z"/>
<g>
	<path style="fill:#8D663D;" d="M376,397.25c-4.142,0-7.5-3.357-7.5-7.5V11.25c0-4.143,3.358-7.5,7.5-7.5s7.5,3.357,7.5,7.5v378.5
		C383.5,393.893,380.142,397.25,376,397.25z"/>
	<path style="fill:#8D663D;" d="M474.5,167.25H365.632H236c-4.142,0-7.5,3.357-7.5,7.5s3.358,7.5,7.5,7.5h129.632H474.5
		c4.142,0,7.5-3.357,7.5-7.5C482,170.608,478.642,167.25,474.5,167.25z"/>
	<path style="fill:#8D663D;" d="M440.957,67.25h-61.085h-68.915c-4.142,0-7.5,3.357-7.5,7.5s3.358,7.5,7.5,7.5h68.915h61.085
		c4.142,0,7.5-3.357,7.5-7.5C448.457,70.608,445.099,67.25,440.957,67.25z"/>
</g>
<path style="fill:#B69362;" d="M368.957,37.25h-28c-4.142,0-7.5-3.357-7.5-7.5s3.358-7.5,7.5-7.5h28c4.142,0,7.5,3.357,7.5,7.5
	S373.099,37.25,368.957,37.25z"/>
<path style="fill:#C8BDA5;" d="M443.892,159.75H272.647c-6.986,0-11.269,7.59-7.723,13.61c31.099,52.797,31.099,118.484,0,171.28
	c-3.546,6.019,0.737,13.61,7.723,13.61h171.245c6.9,0,13.299-3.566,16.973-9.406c34.511-54.873,34.511-124.815,0-179.687
	C457.192,163.316,450.792,159.75,443.892,159.75z"/>
<path style="fill:#E0D8C0;" d="M264.917,173.348c22.991,39.025,28.979,85.091,17.981,127.79
	c-4.838,18.782,9.184,37.112,28.579,37.112l0,0c87.17,0,146.251-90.096,110.029-169.384c-0.014-0.031-0.028-0.062-0.042-0.092
	c-2.533-5.535-8.131-9.024-14.218-9.024H272.647C265.667,159.75,261.374,167.334,264.917,173.348z"/>
<path style="fill:#C8BDA5;" d="M395.413,59.75h-41.694c-6.999,0-11.863,7.017-9.342,13.546c5.326,13.79,5.326,29.118,0,42.908
	c-2.522,6.529,2.343,13.546,9.342,13.546h41.694c8.052,0,15.369-4.809,18.446-12.25c6.017-14.551,6.017-30.949,0-45.5
	C410.782,64.559,403.465,59.75,395.413,59.75z"/>
<path style="fill:#E0D8C0;" d="M398.364,74.513c-0.036-8.176-6.813-14.729-14.989-14.736l-29.656-0.027
	c-6.964,0-11.888,6.98-9.37,13.473c2.25,5.803,3.553,11.879,3.911,17.999c0.612,10.456,9.466,18.528,19.94,18.528h7.213
	c8.128,0,15.446-4.921,18.526-12.443C396.925,90.013,398.398,82.261,398.364,74.513z"/>
<path style="fill:#B69362;" d="M136,329.167c-8.374,0-16.747,1.941-24.415,5.823c-3.4,1.722-5.585,5.167-5.585,8.979v64.281h30
	h66.576v-79.083H136z"/>
<path style="fill:#8D663D;" d="M172,343.969v64.281h60v-64.281c0-3.811-2.184-7.257-5.585-8.979
	c-15.336-7.764-33.495-7.764-48.831,0C174.184,336.712,172,340.158,172,343.969z"/>
<path style="fill:#563F32;" d="M202,395.75c-4.142,0-7.5-3.357-7.5-7.5v-30c0-4.143,3.358-7.5,7.5-7.5s7.5,3.357,7.5,7.5v30
	C209.5,392.393,206.142,395.75,202,395.75z"/>
<g>
	<path style="fill:#8D663D;" d="M276,424.75c-4.142,0-7.5-3.357-7.5-7.5v-26c0-4.143,3.358-7.5,7.5-7.5s7.5,3.357,7.5,7.5v26
		C283.5,421.393,280.142,424.75,276,424.75z"/>
	<path style="fill:#8D663D;" d="M306,424.75c-4.142,0-7.5-3.357-7.5-7.5v-26c0-4.143,3.358-7.5,7.5-7.5s7.5,3.357,7.5,7.5v26
		C313.5,421.393,310.142,424.75,306,424.75z"/>
	<path style="fill:#8D663D;" d="M346,395.75H236c-4.142,0-7.5-3.357-7.5-7.5s3.358-7.5,7.5-7.5h110c4.142,0,7.5,3.357,7.5,7.5
		S350.142,395.75,346,395.75z"/>
	<path style="fill:#8D663D;" d="M412.32,431.094l28.592-29.252c4.951-5.065,1.362-13.592-5.721-13.592H392.18l-163.009,120h168.431
		c11.908,0,19.068-13.21,12.568-23.188l-3.225-4.95c-10.053-15.432-7.818-35.713,5.15-48.792
		C412.171,431.245,412.246,431.17,412.32,431.094z"/>
</g>
<path style="fill:#A57D48;" d="M336,398.25v9c0,5.523-4.477,10-10,10h-70c-5.523,0-10-4.477-10-10v-9c0-5.523-4.477-10-10-10
	h-81.584c-10.471,0-18.39-8.557-18.416-19.028c-0.015-6.062-4.934-10.972-11-10.972H50.008c-6.836,0-12.009,6.161-10.837,12.896
	C45.504,407.511,74.878,508.25,206,508.25h23.171c114.063,0,151.126-76.226,163.009-120H346C340.477,388.25,336,392.727,336,398.25z
	"/>
<path style="fill:#B69362;" d="M202.942,508.213c5.018-0.078,9.885-0.304,14.605-0.669
	c-115.471-8.97-142.353-101.806-148.376-136.398c-1.173-6.734,3.999-12.894,10.834-12.896H50.007
	c-6.835,0.001-12.008,6.161-10.836,12.896C45.454,407.225,74.436,506.651,202.942,508.213z"/>
<path style="fill:#5D7A9A;" d="M50.008,358.25c-6.836,0-12.009,6.161-10.837,12.896c1.412,8.109,3.976,19.424,8.552,32.104H77.72
	l2.283-45H50.008z"/>
<path style="fill:#4C5660;" d="M435.191,388.25H392.18l-32.802,65.08h41.702c1.184-8.095,4.909-15.851,11.016-22.01
	c0.075-0.075,0.149-0.151,0.224-0.226l28.592-29.252C445.863,396.777,442.274,388.25,435.191,388.25z"/>
<path style="fill:#55687D;" d="M346,388.25c-5.523,0-10,4.477-10,10v9c0,5.523-4.477,10-10,10h-70c-5.523,0-10-4.477-10-10v-9
	c0-5.523-4.477-10-10-10h-81.585c-10.471,0-18.388-8.557-18.415-19.028c-0.015-6.062-4.934-10.972-11-10.972H80.004
	c-6.834,0.002-12.005,6.162-10.832,12.895c1.412,8.11,3.971,19.423,8.55,32.105H96.59h0.063c2.515,0,4.838,1.257,6.299,3.304
	c11.532,16.155,30.316,26.696,51.464,26.696h47.488c3.381,0,6.494,1.735,8.377,4.544c9.877,14.737,26.684,24.456,45.719,24.456h70
	c9.941,0,19.275-2.652,27.331-7.284c1.843-1.06,3.922-1.636,6.047-1.636c18.139-21.992,27.749-46.468,32.802-65.08H346z"/>
<g>
	<path style="fill:#8D663D;" d="M134,350.75H83.5v-22.5c0-4.143-3.358-7.5-7.5-7.5H7.5c-4.142,0-7.5,3.357-7.5,7.5
		s3.358,7.5,7.5,7.5h1v15h-1c-4.142,0-7.5,3.357-7.5,7.5s3.358,7.5,7.5,7.5H134c4.142,0,7.5-3.357,7.5-7.5
		S138.142,350.75,134,350.75z M38.5,350.75h-15v-15h15V350.75z M68.5,350.75h-15v-15h15V350.75z"/>
	<path style="fill:#8D663D;" d="M437.202,395.75c-2.256,0-4.487-1.014-5.963-2.944c-2.516-3.29-1.888-7.997,1.402-10.514
		l67.303-51.465c3.29-2.515,7.997-1.888,10.514,1.402c2.516,3.29,1.888,7.997-1.402,10.514l-67.303,51.465
		C440.393,395.247,438.791,395.75,437.202,395.75z"/>
</g>
<g>
</g>
<g>
</g>
<g>
</g>
<g>
</g>
<g>
</g>
<g>
</g>
<g>
</g>
<g>
</g>
<g>
</g>
<g>
</g>
<g>
</g>
<g>
</g>
<g>
</g>
<g>
</g>
<g>
</g>
</svg>
