<svg id="flat" enable-background="new 0 0 512 512" height="512" viewBox="0 0 512 512" width="512" xmlns="http://www.w3.org/2000/svg"><path d="m456 40h16.0000305c17.6730957 0 31.9999695-14.3268738 31.9999695-31.9999676v-.0000324h-16.0000305c-17.6730957 0-31.9999695 14.3268738-31.9999695 31.9999695z" fill="#ffec00"/><path d="m456 40h-16.0000305c-17.6730957 0-31.9999695-14.3268738-31.9999695-31.9999676v-.0000324h16.0000305c17.6730957 0 31.9999695 14.3268738 31.9999695 31.9999695z" fill="#ffec00"/><path d="m456 104h16.0000305c17.6730957 0 31.9999695-14.3268738 31.9999695-31.9999695v-.0000305h-16.0000305c-17.6730957 0-31.9999695 14.3268738-31.9999695 31.9999695z" fill="#ffec00"/><path d="m456 104h-16.0000305c-17.6730957 0-31.9999695-14.3268738-31.9999695-31.9999695v-.0000305h16.0000305c17.6730957 0 31.9999695 14.3268738 31.9999695 31.9999695z" fill="#ffec00"/><path d="m456 168h16.0000305c17.6730957 0 31.9999695-14.3268738 31.9999695-31.9999695v-.0000305h-16.0000305c-17.6730957 0-31.9999695 14.3268738-31.9999695 31.9999695z" fill="#ffec00"/><path d="m456 168h-16.0000305c-17.6730957 0-31.9999695-14.3268738-31.9999695-31.9999695v-.0000305h16.0000305c17.6730957 0 31.9999695 14.3268738 31.9999695 31.9999695z" fill="#ffec00"/><path d="m499.7199707 136c-5.5300293 9.5600586-15.8798828 16-27.7199707 16h-11.7199707c5.5300293-9.5600586 15.8798828-16 27.7199707-16z" fill="#fcc200"/><path d="m499.7199707 136c-5.5300293 9.5600586-15.8798828 16-27.7199707 16h-11.7199707c5.5300293-9.5600586 15.8798828-16 27.7199707-16z" fill="#fcc200"/><path d="m456 240c-4.418457 0-8-3.5820313-8-8v-192c0-4.4179688 3.581543-8 8-8s8 3.5820313 8 8v192c0 4.4179688-3.581543 8-8 8z" fill="#ffec00"/><path d="m120 424h96v80h-96z" fill="#f4faaf"/><path d="m408 232h96v272h-96z" fill="#387f29"/><path d="m312 312h96v192h-96z" fill="#95d202"/><path d="m216 376h96v128h-96z" fill="#c0e602"/><path d="m264 136-4.8621521-24.3107224c-1.6233215-8.1166 4.5848084-15.6892776 12.8621216-15.6892776h.000061c8.2773132 0 14.4854431 7.5726776 12.8621216 15.6892776l-4.8621521 24.3107224z" fill="#ffec00"/><path d="m344 104v64h-32v32h-80v8h-32v-72h112v-32z" fill="#cff0a1"/><path d="m296 280v-40h-32v32h-40l-24 8v-40h32v-40h80v8h16v48l8 24z" fill="#387f29"/><path d="m272 136-16 64 16 16 16-16z" fill="#ffec00"/><path d="m72 224-4.8621445-24.31073c-1.6233215-8.1165924 4.5847855-15.68927 12.8621292-15.68927h.0000305c8.2773438 0 14.4854507 7.5726776 12.8621292 15.68927l-4.8621444 24.31073z" fill="#ffec00"/><path d="m104 368v-40h-32v32h-40l-24 8v-40h32v-40h80v8h16v48l8 24z" fill="#387f29"/><path d="m152 192v64h-32v32h-80v8h-32v-72h112v-32z" fill="#cff0a1"/><path d="m80 224-16 64 16 16 16-16z" fill="#ffec00"/><path d="m96 96v56l-16-16-24 24-24-24 24-24-16-16z" fill="#c0e602"/><path d="m224 48 24 24 24-24 16 16v-56h-56l16 16z" fill="#c0e602"/><path d="m8 472h112v32h-112z" fill="#f6f7d2"/><path d="m96 96v56l-16-16-24 24-12-12z" fill="#95d202"/><path d="m288 8v56l-16-16-24 24-12-12z" fill="#95d202"/><path d="m40 256h16v32h-16z" fill="#95d202"/><path d="m104 256h16v32h-16z" fill="#95d202"/><path d="m296 168h16v32h-16z" fill="#95d202"/><path d="m232 168h16v32h-16z" fill="#95d202"/><g fill="#fcc200"><path d="m272 136v80l16-16z"/><path d="m80 224v80l16-16z"/><path d="m412.2800293 136c5.5300293 9.5600586 15.8798828 16 27.7199707 16h11.7199707c-5.5300293-9.5600586-15.8798828-16-27.7199707-16z"/><path d="m499.7199707 72c-5.5300293 9.5600586-15.8798828 16-27.7199707 16h-11.7199707c5.5300293-9.5600586 15.8798828-16 27.7199707-16z"/><path d="m412.2800293 72c5.5300293 9.5600586 15.8798828 16 27.7199707 16h11.7199707c-5.5300293-9.5600586-15.8798828-16-27.7199707-16z"/><path d="m499.7199707 8c-5.5300293 9.5600586-15.8798828 16-27.7199707 16h-11.7199707c5.5300293-9.5600586 15.8798828-16 27.7199707-16z"/><path d="m412.2800293 8c5.5300293 9.5600586 15.8798828 16 27.7199707 16h11.7199707c-5.5300293-9.5600586-15.8798828-16-27.7199707-16z"/></g><path d="m408 504 96-272v272z" fill="#276019"/><path d="m408 312-96 192h96z" fill="#7ea505"/><path d="m312 376-96 128h96z" fill="#aac106"/><path d="m216 424-96 80h96z" fill="#f8fc60"/><path d="m8 504 112-32v32z" fill="#f4f4b5"/></svg>