<?xml version="1.0" encoding="iso-8859-1"?>
<!-- Generator: Adobe Illustrator 19.0.0, SVG Export Plug-In . SVG Version: 6.00 Build 0)  -->
<svg version="1.1" id="Capa_1" xmlns="http://www.w3.org/2000/svg" xmlns:xlink="http://www.w3.org/1999/xlink" x="0px" y="0px"
	 viewBox="0 0 512 512" style="enable-background:new 0 0 512 512;" xml:space="preserve">
<g>
	<path style="fill:#B9D171;" d="M96.159,164.916c-29.379,0-53.28,23.902-53.28,53.28v15.223c0,4.205,3.408,7.611,7.611,7.611
		s7.611-3.407,7.611-7.611v-15.223c0-20.985,17.072-38.057,38.057-38.057h106.561v-15.223H96.159z"/>
	<path style="fill:#B9D171;" d="M210.331,289.237v199.515l-25.24,8.413c-3.988,1.329-6.143,5.64-4.815,9.628
		c1.329,3.988,5.642,6.144,9.628,4.815l30.444-10.149c3.108-1.036,5.204-3.945,5.204-7.221V289.237H210.331z"/>
</g>
<g>
	<path style="fill:#9DB55F;" d="M301.669,289.237v199.515l25.24,8.413c3.988,1.329,6.143,5.64,4.815,9.628
		c-1.329,3.988-5.642,6.144-9.628,4.815l-30.444-10.149c-3.108-1.036-5.204-3.945-5.204-7.221V289.237H301.669z"/>
	<path style="fill:#9DB55F;" d="M179.885,0v45.669c0,16.814,13.631,30.446,30.446,30.446V30.446C210.331,13.632,196.7,0,179.885,0z"
		/>
</g>
<path style="fill:#869E47;" d="M332.115,0v45.669c0,16.814-13.631,30.446-30.446,30.446V30.446C301.669,13.632,315.3,0,332.115,0z"
	/>
<path style="fill:#9DB55F;" d="M256,20.297v117.724l45.669-61.907V65.966C301.669,40.744,281.222,20.297,256,20.297z"/>
<path style="fill:#B9D171;" d="M256,20.297c-25.222,0-45.669,20.447-45.669,45.669v10.149l60.892,61.907V65.966
	C271.223,40.744,264.407,20.297,256,20.297z"/>
<path style="fill:#85453D;" d="M274.987,76.115c-1.069-1.596-2.337-3.047-3.764-4.324L256,142.081
	c25.222,0,45.669-20.447,45.669-45.669V76.115H274.987z"/>
<path style="fill:#A45E43;" d="M271.223,96.412V71.791c-4.04-3.619-9.372-5.824-15.223-5.824c-7.917,0-14.89,4.03-18.987,10.149
	h-26.682v20.297c0,25.222,20.447,45.669,45.669,45.669C264.407,142.081,271.223,121.635,271.223,96.412z"/>
<path style="fill:#9DB55F;" d="M278.834,319.683c0,0,0,61.652,0,70.059c0,8.407,6.816,15.223,15.223,15.223
	c8.407,0,15.223-6.816,15.223-15.223c0-8.407,0-70.059,0-70.059H278.834z"/>
<path style="fill:#B9D171;" d="M202.719,319.683c0,0,0,61.652,0,70.059c0,8.407,6.816,15.223,15.223,15.223
	c8.407,0,15.223-6.816,15.223-15.223c0-8.407,0-70.059,0-70.059H202.719z"/>
<polygon style="fill:#60312C;" points="263.611,330.846 324.503,300.4 324.503,239.508 294.057,239.508 "/>
<g>
	<polygon style="fill:#85453D;" points="294.057,330.846 187.496,300.4 187.496,239.508 294.057,239.508 	"/>
	<polygon style="fill:#85453D;" points="294.057,355.203 324.503,355.203 324.503,300.4 294.057,300.4 263.611,327.802 	"/>
</g>
<rect x="187.496" y="300.4" style="fill:#A45E43;" width="106.561" height="54.833"/>
<path style="fill:#9DB55F;" d="M309.28,142.081l-15.223,127.873h30.446c8.149-6.12,13.812-15.365,15.223-25.95v-63.866h60.892
	v-38.057H309.28z"/>
<path style="fill:#B9D171;" d="M141.828,142.081c-16.815,0-30.446,13.631-30.446,30.446h60.892v71.477
	c1.411,10.585,7.074,19.83,15.223,25.95h106.561c8.149-6.12,13.812-15.365,15.223-25.95V142.081H141.828z"/>
<circle style="fill:#9DB55F;" cx="202.719" cy="172.527" r="7.611"/>
<circle style="fill:#869E47;" cx="309.28" cy="172.527" r="7.611"/>
<polygon style="fill:#FFCB63;" points="400.618,142.081 400.618,263.865 446.287,248.642 446.287,157.304 "/>
<g>
	<path style="fill:#FFF0D3;" d="M400.621,248.642h60.889v15.223c0,8.403-6.82,15.223-15.223,15.223h-60.889L400.621,248.642z"/>
	<path style="fill:#FFF0D3;" d="M446.287,126.858c8.403,0,15.223,6.82,15.223,15.223v15.223h-60.889l-15.223-30.446H446.287z"/>
</g>
<path style="fill:#FFE2A8;" d="M400.621,157.304v-15.223c0-8.407-6.816-15.223-15.223-15.223c-8.407,0-15.223,6.816-15.223,15.223
	v121.784c0,8.407,6.816,15.223,15.223,15.223c8.407,0,15.223-6.816,15.223-15.223v-15.223h15.22v-91.338H400.621z"/>
<path style="fill:#9DB55F;" d="M461.51,195.362h-30.446c-4.205,0-7.612-3.407-7.612-7.611c0-4.205,3.407-7.611,7.612-7.611h30.446
	c4.205,0,7.612,3.407,7.612,7.611C469.122,191.955,465.715,195.362,461.51,195.362z"/>
<g>
</g>
<g>
</g>
<g>
</g>
<g>
</g>
<g>
</g>
<g>
</g>
<g>
</g>
<g>
</g>
<g>
</g>
<g>
</g>
<g>
</g>
<g>
</g>
<g>
</g>
<g>
</g>
<g>
</g>
</svg>
